<svg width="25" height="25" viewBox="0 0 25 25" fill="none" xmlns="http://www.w3.org/2000/svg">
<g clip-path="url(#clip0_1_177)">
<path d="M12.2496 9.43188C8.5587 9.43188 4.86869 9.43442 1.17784 9.42596C0.941763 9.42511 0.678614 9.39465 0.476387 9.28635C-0.170063 8.94112 -0.153987 8.08314 0.49754 7.64653C1.94528 6.67517 3.39895 5.71142 4.84923 4.74428C7.08219 3.25592 9.31515 1.76587 11.5481 0.277518C12.1015 -0.0913981 12.3909 -0.0939365 12.94 0.272441C16.5894 2.7034 20.2405 5.13266 23.8814 7.5763C24.1116 7.73115 24.3333 7.97653 24.434 8.22952C24.6319 8.72451 24.2833 9.27958 23.7604 9.39127C23.5971 9.42596 23.4245 9.43104 23.257 9.43104C19.5881 9.43273 15.9193 9.43188 12.2496 9.43188ZM22.1418 8.05099C22.0428 7.97568 22.0106 7.9486 21.9751 7.92491C18.8012 5.80788 15.6248 3.69338 12.4552 1.57042C12.2758 1.45027 12.1658 1.49003 12.0118 1.59326C8.9107 3.66545 5.80621 5.73342 2.70173 7.80222C2.60104 7.86907 2.50458 7.94268 2.35397 8.05014C8.97331 8.05099 15.5216 8.05099 22.1418 8.05099Z" fill="white"/>
<path d="M12.214 24.9975C9.0723 24.9975 5.93059 25.0042 2.78888 24.9941C1.31406 24.9898 0.34269 23.5463 0.887603 22.1993C1.19898 21.4284 1.93343 20.9385 2.80664 20.9368C4.78492 20.9326 6.76319 20.9351 8.74061 20.9351C13.0458 20.9351 17.3509 20.9335 21.6561 20.9368C22.8728 20.9377 23.7663 21.8295 23.7486 23.0065C23.7316 24.1217 22.8483 24.9907 21.7018 24.9949C19.6177 25.0025 17.5337 24.9975 15.4505 24.9975C14.3717 24.9983 13.2928 24.9983 12.214 24.9975ZM12.2292 23.6496C15.2846 23.6496 18.3401 23.6496 21.3963 23.6496C21.5021 23.6496 21.6078 23.6538 21.7136 23.6462C22.1282 23.6132 22.4049 23.3356 22.4007 22.9608C22.3964 22.586 22.1181 22.3169 21.7001 22.2881C21.6265 22.283 21.552 22.2864 21.4784 22.2864C15.3253 22.2864 9.1713 22.2864 3.01818 22.2864C2.41657 22.2864 2.09927 22.5183 2.09335 22.9591C2.08743 23.4093 2.41319 23.6504 3.03172 23.6504C6.09728 23.6496 9.16368 23.6496 12.2292 23.6496Z" fill="white"/>
<path d="M3.43955 15.1814C3.43955 14.029 3.43955 12.8765 3.43955 11.7241C3.43955 11.6183 3.43617 11.5117 3.44971 11.4076C3.49878 11.0328 3.77716 10.7798 4.12831 10.7832C4.47015 10.7866 4.73584 11.0269 4.79084 11.3899C4.80522 11.4829 4.80353 11.5794 4.80353 11.6742C4.80438 14.0112 4.80438 16.3474 4.80269 18.6844C4.80269 18.8003 4.7993 18.9179 4.77646 19.0313C4.7113 19.3545 4.44477 19.5762 4.13001 19.5813C3.80593 19.5864 3.52501 19.3554 3.46155 19.0186C3.4404 18.9053 3.43955 18.7876 3.43955 18.6717C3.43871 17.5083 3.43955 16.3448 3.43955 15.1814Z" fill="white"/>
<path d="M19.6896 15.1602C19.6896 13.9655 19.6863 12.7707 19.6913 11.576C19.6939 11.0582 20.0289 10.7197 20.463 10.7908C20.7617 10.8399 20.9656 11.0142 21.0232 11.3179C21.0528 11.4719 21.0528 11.6327 21.0528 11.7909C21.0545 14.0535 21.0536 16.3161 21.0536 18.5795C21.0536 18.6853 21.0587 18.7919 21.0494 18.8968C21.0147 19.308 20.7279 19.5898 20.3581 19.5813C19.9985 19.5737 19.7277 19.2987 19.693 18.9036C19.6846 18.8088 19.6888 18.7132 19.6888 18.6184C19.6896 17.4651 19.6896 16.3127 19.6896 15.1602Z" fill="white"/>
<path d="M14.2786 15.189C14.2786 13.9621 14.2735 12.7361 14.2811 11.5092C14.2845 10.938 14.8218 10.6046 15.2872 10.8712C15.5563 11.026 15.6299 11.2756 15.629 11.5718C15.624 12.8613 15.6273 14.1517 15.6273 15.4412C15.6273 16.5623 15.6248 17.6826 15.629 18.8037C15.6299 19.1007 15.5478 19.3461 15.2737 19.4942C14.81 19.7446 14.2888 19.4231 14.282 18.8672C14.271 17.9263 14.2786 16.9854 14.2786 16.0445C14.2778 15.7602 14.2778 15.475 14.2786 15.189Z" fill="white"/>
<path d="M8.86752 15.1882C8.86752 13.9621 8.8616 12.7352 8.87006 11.5092C8.87429 10.9473 9.38198 10.6156 9.84397 10.8593C10.0893 10.9888 10.2137 11.202 10.2137 11.4796C10.2146 13.9427 10.2171 16.4066 10.212 18.8697C10.2112 19.2953 9.90743 19.5923 9.52159 19.5813C9.1476 19.5703 8.87175 19.2843 8.86922 18.868C8.86329 17.6411 8.86752 16.4142 8.86752 15.1882Z" fill="white"/>
</g>
<defs>
<clipPath id="clip0_1_177">
<rect width="24.4915" height="25" fill="white"/>
</clipPath>
</defs>
</svg>
