<svg width="17" height="12" viewBox="0 0 17 12" fill="none" xmlns="http://www.w3.org/2000/svg">
<path d="M15.9419 5.52515C14.1971 1.84969 11.5597 0 8.02407 0C4.48665 0 1.85106 1.84969 0.10628 5.52699C0.0362957 5.67518 0 5.83704 0 6.00092C0 6.1648 0.0362957 6.32666 0.10628 6.47485C1.85106 10.1503 4.48849 12 8.02407 12C11.5615 12 14.1971 10.1503 15.9419 6.47301C16.0836 6.17485 16.0836 5.82883 15.9419 5.52515ZM8.02407 10.6748C5.05536 10.6748 2.88174 9.16932 1.34861 6C2.88174 2.83067 5.05536 1.32515 8.02407 1.32515C10.9928 1.32515 13.1664 2.83067 14.6995 6C13.1682 9.16932 10.9946 10.6748 8.02407 10.6748Z" fill="#1890FF" fill-opacity="0.6"/>
<path d="M7.95041 2.76074C6.16145 2.76074 4.71114 4.21104 4.71114 6C4.71114 7.78896 6.16145 9.23926 7.95041 9.23926C9.73937 9.23926 11.1897 7.78896 11.1897 6C11.1897 4.21104 9.73937 2.76074 7.95041 2.76074ZM7.95041 8.06135C6.81115 8.06135 5.88906 7.13926 5.88906 6C5.88906 4.86074 6.81115 3.93865 7.95041 3.93865C9.08967 3.93865 10.0118 4.86074 10.0118 6C10.0118 7.13926 9.08967 8.06135 7.95041 8.06135Z" fill="#1890FF" fill-opacity="0.6"/>
</svg>
