<svg width="21" height="25" viewBox="0 0 21 25" fill="none" xmlns="http://www.w3.org/2000/svg">
<path d="M10.957 0C11.4284 0.078123 11.9075 0.125648 12.3704 0.240228C15.4654 1.00388 17.6977 2.84433 18.8598 5.80323C20.2413 9.32072 19.6111 12.5654 17.1652 15.4482C17.0441 15.5907 17.0552 15.6819 17.1385 15.8258C18.2661 17.7743 19.3884 19.726 20.5102 21.6772C20.5622 21.7677 20.6202 21.8634 20.6384 21.9636C20.6879 22.2318 20.4568 22.4265 20.156 22.3634C19.4405 22.213 18.7277 22.0515 18.0128 21.8953C17.7205 21.8315 17.4282 21.769 17.1151 21.7013C16.9321 22.2742 16.7544 22.8288 16.578 23.3842C16.4452 23.8021 16.311 24.2194 16.1834 24.6393C16.1294 24.8164 16.0435 24.9486 15.841 24.9681C15.6398 24.9876 15.5292 24.877 15.4393 24.7142C15.2668 24.4011 15.0806 24.0951 14.9074 23.7826C14.7798 23.5528 14.828 23.3425 15.0214 23.2351C15.2115 23.1296 15.3983 23.1915 15.5363 23.4089C15.5871 23.489 15.632 23.5736 15.7082 23.7045C15.9256 23.0215 16.1262 22.3926 16.326 21.7638C16.3853 21.5782 16.4393 21.3907 16.5031 21.2065C16.5942 20.9454 16.7401 20.8653 17.0102 20.9246C17.8351 21.1036 18.6593 21.2853 19.5505 21.4799C18.5161 19.6824 17.5076 17.9299 16.4829 16.1493C15.3423 17.1539 14.0559 17.8511 12.5683 18.2359C12.6139 18.3211 12.6516 18.3973 12.6933 18.4702C13.3176 19.5548 13.9426 20.6394 14.567 21.724C14.6073 21.7944 14.649 21.8653 14.6776 21.9402C14.7499 22.1283 14.6867 22.2833 14.5207 22.3783C14.3547 22.4734 14.1887 22.4454 14.0605 22.2943C14.0084 22.2331 13.9713 22.1589 13.9309 22.0886C13.2571 20.9194 12.5813 19.7521 11.9147 18.5789C11.8326 18.4344 11.748 18.3927 11.5872 18.4175C10.7454 18.547 9.90106 18.5477 9.05993 18.4168C8.88871 18.3901 8.8171 18.4546 8.73833 18.5913C7.57885 20.6147 6.41417 22.6361 5.24558 24.655C5.17136 24.7839 5.04962 24.8854 4.95067 25C4.86929 25 4.78791 25 4.70653 25C4.6206 24.8698 4.50081 24.75 4.45328 24.6068C4.15902 23.7201 3.88103 22.8288 3.59784 21.9389C3.57635 21.8712 3.55031 21.8048 3.52232 21.726C2.51844 21.9454 1.52693 22.1583 0.53737 22.3809C0.35313 22.4226 0.198186 22.42 0.0777464 22.2611C-0.0426932 22.1029 -0.00949103 21.9467 0.0842565 21.7852C0.630466 20.8432 1.17277 19.8979 1.71833 18.9552C1.86611 18.6994 2.05556 18.6271 2.25673 18.7391C2.45985 18.8517 2.495 19.0705 2.34592 19.3309C1.98655 19.9585 1.62393 20.5848 1.26326 21.2117C1.21899 21.2885 1.17798 21.3666 1.10767 21.4949C1.4143 21.4317 1.67731 21.3816 1.93903 21.3237C2.47873 21.2052 3.01712 21.0815 3.55682 20.9617C3.92921 20.879 4.05681 20.9539 4.17204 21.3178C4.42073 22.0997 4.66812 22.8809 4.93765 23.7292C6.00142 21.8822 7.0398 20.0796 8.09707 18.2437C6.6238 17.8589 5.32956 17.1773 4.19027 16.1669C4.14991 16.2216 4.10954 16.2672 4.0796 16.3192C3.8309 16.7483 3.58482 17.1786 3.33678 17.6083C3.15188 17.9292 2.98913 18.0054 2.76322 17.8797C2.53667 17.7534 2.51648 17.5679 2.69617 17.2541C3.00345 16.7183 3.31073 16.1832 3.62648 15.6331C3.48065 15.4612 3.33027 15.2926 3.18899 15.1161C1.6337 13.1761 0.927984 10.9665 1.13501 8.48546C1.34334 5.98552 2.42013 3.91461 4.29248 2.25189C4.51643 2.05333 4.74038 2.03966 4.89142 2.21218C5.04832 2.39186 5.01251 2.59498 4.77749 2.80136C3.23522 4.15679 2.25542 5.8423 1.94489 7.86894C1.50479 10.7432 2.30881 13.2575 4.36995 15.316C6.13813 17.0809 8.31386 17.8921 10.8079 17.7613C14.6067 17.5614 17.8117 14.7997 18.6241 11.0726C19.6371 6.42236 16.6372 1.82482 11.9687 0.897763C10.0267 0.512356 8.16738 0.790995 6.40375 1.69397C6.34581 1.72391 6.28982 1.75712 6.23123 1.78511C6.01249 1.88927 5.80155 1.83394 5.7052 1.65035C5.60885 1.46611 5.67916 1.25322 5.88944 1.13734C6.76507 0.65428 7.69604 0.326163 8.67974 0.149085C8.99809 0.0917945 9.31839 0.0494779 9.63804 0C10.0775 0 10.5176 0 10.957 0Z" fill="white"/>
<path d="M17.0631 9.27388C17.0143 9.68923 16.9765 10.0857 16.9199 10.4789C16.8736 10.8012 16.7109 10.9392 16.4674 10.8923C16.2421 10.8494 16.1464 10.6534 16.2024 10.352C16.6536 7.9217 15.5664 5.45627 13.4701 4.15552C9.80872 1.8841 5.00025 4.13925 4.40326 8.40736C3.93192 11.7784 6.31857 14.9007 9.69674 15.2112C12.2292 15.4443 14.183 14.4072 15.5156 12.2289C15.5709 12.139 15.6139 12.0401 15.6784 11.9574C15.7981 11.8018 15.9602 11.7614 16.1334 11.8532C16.3164 11.9502 16.3717 12.1117 16.3046 12.3083C16.2864 12.3617 16.2571 12.4112 16.2298 12.4613C14.9167 14.8825 12.3288 16.2561 9.57435 15.9462C6.62326 15.6142 4.39024 13.4404 3.78544 10.7862C2.93585 7.06625 5.24569 3.46283 8.97801 2.65621C12.5873 1.87628 16.3007 4.37622 16.9153 8.00698C16.9869 8.43015 17.0156 8.86113 17.0631 9.27388Z" fill="white"/>
<path d="M10.4252 4.93081C10.4792 4.98484 10.6127 5.06948 10.6745 5.19057C10.9974 5.81946 11.3047 6.45616 11.6107 7.09286C11.6797 7.23739 11.7617 7.3103 11.9343 7.33114C12.6361 7.41707 13.3372 7.51407 14.0332 7.63647C14.1666 7.6599 14.3372 7.79206 14.3802 7.91315C14.4179 8.01992 14.3378 8.21718 14.2454 8.31158C13.7461 8.82394 13.2278 9.31937 12.7116 9.81545C12.6152 9.90789 12.5768 9.98862 12.6035 10.1318C12.7357 10.8428 12.8607 11.5556 12.9642 12.2711C12.9831 12.4 12.9212 12.5758 12.8353 12.676C12.7174 12.8128 12.5417 12.7698 12.3861 12.6865C11.7624 12.3531 11.1354 12.027 10.5144 11.6884C10.3764 11.6136 10.2715 11.6149 10.1335 11.6897C9.51961 12.0244 8.89853 12.3447 8.28266 12.6741C8.12055 12.7607 7.96301 12.8023 7.80416 12.6826C7.65637 12.5712 7.64205 12.4228 7.67395 12.2457C7.80155 11.542 7.91157 10.8349 8.04178 10.1325C8.06782 9.99122 8.03332 9.90724 7.93631 9.81479C7.42591 9.32457 6.92202 8.82719 6.41292 8.33502C6.28271 8.20872 6.18766 8.08047 6.25667 7.88516C6.32438 7.69376 6.47737 7.64363 6.6564 7.61889C7.34844 7.52254 8.03983 7.41772 8.73252 7.32788C8.88095 7.30835 8.95842 7.24911 9.02157 7.1163C9.32951 6.47113 9.65111 5.83248 9.96165 5.18861C10.0385 5.02911 10.1446 4.92495 10.4252 4.93081ZM8.50856 11.7203C8.85556 11.5381 9.1674 11.3707 9.4825 11.2093C10.5053 10.6872 10.1303 10.6768 11.17 11.2112C11.4818 11.3714 11.791 11.5368 12.1348 11.7171C12.0384 11.1579 11.9662 10.6435 11.8574 10.1371C11.7897 9.82391 11.849 9.59345 12.0983 9.38251C12.377 9.14684 12.6256 8.87602 12.8906 8.62407C13.0058 8.5147 13.1295 8.41444 13.2949 8.27056C12.6588 8.17617 12.1139 8.08307 11.5658 8.01992C11.3158 7.99127 11.1713 7.87865 11.069 7.65795C10.8614 7.20874 10.6374 6.7667 10.418 6.3227C10.392 6.26997 10.3549 6.22244 10.308 6.15018C10.0502 6.6762 9.8015 7.16838 9.56778 7.66772C9.46817 7.87995 9.3282 7.99127 9.08993 8.01992C8.53656 8.08698 7.98644 8.17617 7.4819 8.24973C7.8328 8.62602 8.17589 9.0264 8.55609 9.38902C8.7846 9.60712 8.85165 9.82261 8.7885 10.1253C8.68109 10.6396 8.60492 11.1611 8.50856 11.7203Z" fill="white"/>
</svg>
