<svg width="25" height="25" viewBox="0 0 25 25" fill="none" xmlns="http://www.w3.org/2000/svg">
<path d="M12.9398 25C12.777 25 12.6142 25 12.4515 25C12.432 24.987 12.4137 24.9674 12.3916 24.9616C11.7966 24.7949 11.4593 24.403 11.3669 23.7943C11.2731 23.1758 11.1761 22.558 11.0791 21.9402C11.0192 21.5593 10.9561 21.1791 10.8942 20.7957C10.8103 20.8022 10.7614 20.8028 10.7146 20.81C10.0459 20.9148 9.47565 20.7104 9.00301 20.241C7.58508 18.8302 6.173 17.4136 4.75898 15.9989C4.41263 15.6526 4.21082 15.2346 4.16915 14.747C4.15157 14.5393 4.16589 14.329 4.16589 14.107C4.14767 14.1012 4.10991 14.0843 4.0715 14.0784C3.30133 13.9586 2.52792 13.8525 1.76036 13.7158C1.373 13.6468 0.977829 13.5647 0.618463 13.4131C0.265608 13.2633 0.121731 12.8994 0.000640869 12.5491C0.000640869 12.3864 0.000640869 12.2236 0.000640869 12.0609C0.0644413 11.9131 0.108711 11.7523 0.195948 11.6195C1.0566 10.3077 1.9153 8.99455 2.79484 7.69576C3.11124 7.22898 3.58583 6.97768 4.15222 6.93016C5.31886 6.8325 6.4868 6.74787 7.65278 6.6437C7.77192 6.63329 7.90733 6.55386 7.99262 6.46532C8.35394 6.09098 8.68986 5.69256 9.05053 5.31757C11.9619 2.28705 15.5191 0.580714 19.6902 0.137366C20.1414 0.0891903 20.5932 0.0455717 21.045 0C21.7123 0 22.3796 0 23.0469 0C23.1088 0.0143225 23.1706 0.0351553 23.2337 0.0416656C24.0801 0.132809 24.7493 0.735007 24.9316 1.57353C24.959 1.69917 24.9778 1.82612 25.0006 1.95242C25.0006 2.61972 25.0006 3.28702 25.0006 3.95432C24.9362 4.55977 24.8854 5.16653 24.8047 5.76938C24.5306 7.83248 23.9577 9.80638 22.974 11.6468C21.8705 13.7106 20.3517 15.4377 18.5841 16.9546C18.4422 17.0764 18.3563 17.1949 18.3426 17.3967C18.2664 18.5158 18.1675 19.6336 18.0835 20.7527C18.0308 21.4552 17.6909 21.9734 17.1083 22.3529C16.4065 22.8093 15.7164 23.2845 15.01 23.7331C14.3271 24.168 13.6305 24.5788 12.9398 25ZM21.7169 1.48043C21.7162 1.47001 21.7162 1.46025 21.7156 1.44983C21.1882 1.48694 20.6603 1.51233 20.1342 1.56311C18.0939 1.75842 16.1207 2.23301 14.3023 3.19067C11.0303 4.91458 8.60914 7.49459 6.88848 10.7517C6.81491 10.8903 6.87871 10.9541 6.96205 11.0375C9.29792 13.372 11.6338 15.706 13.9651 18.0451C14.0803 18.161 14.1663 18.1642 14.2971 18.0861C14.8889 17.7306 15.508 17.4169 16.0751 17.0262C18.3927 15.4312 20.3172 13.4606 21.6693 10.975C22.6244 9.21981 23.168 7.32272 23.375 5.34296C23.4863 4.27853 23.4903 3.20174 23.5111 2.13015C23.5209 1.63407 23.3646 1.50256 22.862 1.48368C22.4818 1.46871 22.099 1.48043 21.7169 1.48043ZM12.6409 18.8517C10.4613 16.6714 8.32985 14.54 6.19904 12.4085C6.201 12.4059 6.17886 12.4228 6.173 12.4443C5.99202 13.1351 5.79997 13.8232 5.64502 14.5198C5.61638 14.6487 5.69906 14.8512 5.79866 14.9521C7.20488 16.3765 8.62151 17.7912 10.0433 19.2C10.1371 19.2931 10.3135 19.3856 10.4281 19.3621C11.1644 19.2111 11.8942 19.0275 12.6409 18.8517ZM16.8081 18.3081C15.3883 19.2443 13.9306 19.9624 12.3284 20.4402C12.4834 21.4415 12.6364 22.4284 12.7939 23.4479C14.0263 22.6316 15.2209 21.8451 16.4071 21.045C16.5067 20.9773 16.5933 20.825 16.6057 20.7039C16.6844 19.9285 16.7398 19.1505 16.8081 18.3081ZM6.69122 8.19314C5.84424 8.2628 5.04999 8.31488 4.26029 8.40473C4.12163 8.42035 3.96603 8.57334 3.87814 8.70354C3.20889 9.69375 2.55461 10.6944 1.89577 11.6917C1.78901 11.8539 1.68289 12.016 1.55724 12.2074C2.57609 12.3643 3.5663 12.5172 4.56172 12.6709C5.04152 11.059 5.76286 9.60261 6.69122 8.19314Z" fill="white"/>
<path d="M0.000651024 24.0723C0.156897 23.8796 0.298169 23.6719 0.471993 23.4968C1.88667 22.073 3.3046 20.6525 4.73165 19.2417C4.86771 19.1076 5.06302 18.9969 5.24791 18.9565C5.54087 18.8934 5.79151 19.0269 5.94906 19.2886C6.11052 19.5568 6.09815 19.8309 5.92302 20.0913C5.87354 20.1648 5.80909 20.2286 5.74594 20.2918C4.29286 21.7462 2.84042 23.2012 1.38278 24.6504C1.24801 24.7845 1.08005 24.8841 0.92771 25C0.797505 25 0.6673 25 0.537095 25C0.294914 24.8841 0.11458 24.7064 0 24.4629C0.000651024 24.3327 0.000651024 24.2025 0.000651024 24.0723Z" fill="white"/>
<path d="M0.000610352 19.7755C0.134721 19.5769 0.243443 19.3536 0.408152 19.1844C1.11647 18.4552 1.84236 17.7436 2.55914 17.0223C2.76877 16.8114 3.00834 16.6981 3.30586 16.7691C3.84817 16.8993 4.06886 17.5594 3.6789 17.9637C2.87749 18.795 2.0598 19.6108 1.22844 20.4128C0.853453 20.7748 0.260369 20.6114 0.0631087 20.1277C0.0416249 20.0756 0.0214431 20.0229 0.000610352 19.9708C0.000610352 19.9057 0.000610352 19.8406 0.000610352 19.7755Z" fill="white"/>
<path d="M5.02974 25C4.98547 24.9817 4.94185 24.9622 4.89693 24.9453C4.38393 24.7513 4.22117 24.1445 4.60202 23.7532C5.39692 22.9375 6.20484 22.1348 7.01667 21.336C7.30442 21.0528 7.75298 21.0665 8.03162 21.3373C8.31937 21.6172 8.33825 22.0677 8.04399 22.3679C7.25169 23.1745 6.45093 23.9733 5.64366 24.7643C5.53363 24.8724 5.36632 24.9225 5.2257 24.9993C5.15995 25 5.09484 25 5.02974 25Z" fill="white"/>
<path d="M0.000610352 24.4629C0.115191 24.7064 0.295524 24.8841 0.537706 25C0.358674 25 0.179642 25 0.000610352 25C0.000610352 24.821 0.000610352 24.6419 0.000610352 24.4629Z" fill="white"/>
<path d="M17.1144 11.5309C15.0864 11.527 13.4647 9.89486 13.4686 7.86366C13.4725 5.84223 15.1183 4.20425 17.1372 4.21206C19.1553 4.21988 20.7992 5.87283 20.7907 7.88645C20.7822 9.90853 19.1417 11.5348 17.1144 11.5309ZM14.9341 7.86822C14.9315 9.08303 15.895 10.0583 17.1066 10.0661C18.3279 10.0739 19.32 9.09735 19.3252 7.88189C19.3305 6.67424 18.3292 5.67296 17.1202 5.67752C15.9132 5.68143 14.9367 6.65992 14.9341 7.86822Z" fill="white"/>
</svg>
