<svg width="9" height="9" viewBox="0 0 9 9" fill="none" xmlns="http://www.w3.org/2000/svg">
<path d="M4.24815 3.97371L0.077983 7.23749C0.028125 7.27584 -5.04137e-08 7.33593 -4.76756e-08 7.39857L-4.47952e-09 8.38678C-7.35494e-10 8.47243 0.0984374 8.51973 0.164915 8.46732L4.5 5.07442L8.83508 8.46732C8.85016 8.47912 8.86825 8.48645 8.88729 8.48845C8.90633 8.49046 8.92555 8.48707 8.94275 8.47867C8.95996 8.47027 8.97445 8.45719 8.98457 8.44094C8.99469 8.42469 9.00004 8.40592 9 8.38678L9 7.39857C9 7.33593 8.9706 7.27584 8.92202 7.23749L4.75312 3.97371C4.60355 3.85737 4.39645 3.85737 4.24815 3.97371ZM4.24815 0.0873468L0.0779828 3.35112C0.0281249 3.38948 -2.20292e-07 3.44956 -2.17554e-07 3.51221L-1.74358e-07 4.50042C-1.70614e-07 4.58607 0.0984373 4.63337 0.164915 4.58095L4.5 1.18806L8.83508 4.58095C8.85016 4.59276 8.86825 4.60008 8.88729 4.60209C8.90633 4.6041 8.92555 4.6007 8.94275 4.5923C8.95996 4.5839 8.97445 4.57083 8.98457 4.55458C8.99469 4.53833 9.00004 4.51956 9 4.50041L9 3.5122C9 3.44956 8.9706 3.38948 8.92202 3.35112L4.75312 0.0873468C4.60355 -0.0289881 4.39645 -0.0289881 4.24815 0.0873468Z" fill="#8DCB09"/>
</svg>
